<svg width="119" height="35" viewBox="0 0 119 35" fill="none" xmlns="http://www.w3.org/2000/svg">
<path d="M0 0.000244141V13.0195L7.78517 7.03427L0 0.000244141Z" fill="#131118"/>
<path d="M0 34.999L7.78517 27.9666L0 21.986V34.999Z" fill="#131118"/>
<path d="M14.5985 15.7161L34.1862 0H22.7693L0 17.5034L14.5985 15.7161Z" fill="#131118"/>
<path d="M0 17.5034L22.7693 35H34.1862L14.5985 19.281L0 17.5034Z" fill="#131118"/>
<path d="M40.302 1.50977H44.1516V33.2121H40.302V1.50977ZM56.606 1.50977H61.3614L47.6388 16.3646L62.0407 33.2121H57.2854L42.9741 16.4551L56.606 1.50977Z" fill="#131118"/>
<path d="M69.3064 12.3791V33.2121H65.6833V12.3791H69.3064ZM75.6016 16.3646C75.1185 16.0023 74.6807 15.7456 74.2882 15.5947C73.8957 15.4135 73.3975 15.3229 72.7937 15.3229C71.8879 15.3229 71.1784 15.5494 70.6651 16.0023C70.1518 16.4551 69.7895 17.0741 69.5782 17.8591C69.397 18.6441 69.3064 19.5348 69.3064 20.5312H67.676C67.676 18.8706 67.9629 17.4062 68.5365 16.1381C69.1404 14.8398 69.9103 13.8133 70.8463 13.0585C71.7822 12.3036 72.7333 11.9262 73.6995 11.9262C74.4543 11.9262 75.1487 12.0319 75.7828 12.2433C76.447 12.4244 77.0508 12.8018 77.5943 13.3755L75.6016 16.3646Z" fill="#131118"/>
<path d="M81.2072 3.77422C81.2072 3.07979 81.4487 2.49103 81.9318 2.00795C82.4451 1.52487 83.0338 1.28333 83.6981 1.28333C84.3925 1.28333 84.9813 1.52487 85.4643 2.00795C85.9474 2.49103 86.189 3.07979 86.189 3.77422C86.189 4.43846 85.9474 5.02722 85.4643 5.54049C84.9813 6.02357 84.3925 6.26511 83.6981 6.26511C83.0338 6.26511 82.4451 6.02357 81.9318 5.54049C81.4487 5.02722 81.2072 4.43846 81.2072 3.77422ZM81.8865 12.3791H85.5096V33.2121H81.8865V12.3791Z" fill="#131118"/>
<path d="M93.8322 26.8263C94.2549 27.4604 94.738 28.0491 95.2814 28.5926C95.8249 29.1361 96.4439 29.5739 97.1383 29.906C97.8629 30.2079 98.6479 30.3589 99.4933 30.3589C100.52 30.3589 101.32 30.1324 101.894 29.6795C102.497 29.1964 102.799 28.5473 102.799 27.7321C102.799 27.0075 102.558 26.4036 102.075 25.9205C101.622 25.4073 101.033 24.9846 100.309 24.6524C99.5839 24.2901 98.814 23.958 97.9988 23.6561C97.093 23.2938 96.1721 22.8711 95.2361 22.388C94.3304 21.8747 93.5605 21.2256 92.9264 20.4406C92.3226 19.6254 92.0206 18.6139 92.0206 17.4062C92.0206 16.1683 92.3377 15.1418 92.9717 14.3266C93.6359 13.5114 94.4813 12.9075 95.5079 12.515C96.5646 12.1225 97.6516 11.9262 98.7687 11.9262C99.8858 11.9262 100.927 12.1074 101.894 12.4697C102.89 12.832 103.766 13.3151 104.52 13.919C105.275 14.5228 105.864 15.2172 106.287 16.0023L103.388 17.8591C102.815 17.0741 102.09 16.4249 101.214 15.9117C100.369 15.3984 99.4027 15.1418 98.3158 15.1418C97.561 15.1418 96.9118 15.3078 96.3684 15.6399C95.8249 15.9721 95.5532 16.4853 95.5532 17.1798C95.5532 17.7232 95.7645 18.2063 96.1872 18.629C96.6099 19.0517 97.1534 19.4291 97.8176 19.7612C98.4819 20.0934 99.1763 20.4104 99.9009 20.7123C101.109 21.1954 102.211 21.7238 103.207 22.2974C104.203 22.8409 104.988 23.5051 105.562 24.2901C106.166 25.0751 106.468 26.0866 106.468 27.3245C106.468 29.1361 105.804 30.6457 104.475 31.8534C103.177 33.0611 101.456 33.665 99.3122 33.665C97.9233 33.665 96.6703 33.4234 95.5532 32.9403C94.436 32.4271 93.485 31.7779 92.7 30.9929C91.9451 30.2079 91.3715 29.4078 90.979 28.5926L93.8322 26.8263Z" fill="#131118"/>
<path d="M108.067 12.3791H118.484V15.7758H108.067V12.3791ZM111.464 5.13289H115.087V33.2121H111.464V5.13289Z" fill="#131118"/>
</svg>
